<svg id="Capa_1" enable-background="new 0 0 512 512" height="512" viewBox="0 0 512 512" width="512" xmlns="http://www.w3.org/2000/svg"><g><g><path d="m329.378 216.159 69.659-34.453 69.886 33.995-11.243-76.898 53.928-55.96-76.608-13.071-36.556-68.58-36.105 68.819-76.519 13.575 54.293 55.604z" fill="#d599ed"/><path d="m329.378 216.159 69.659-34.453 69.886 33.995-11.243-76.898 53.928-55.96-76.608-13.071-36.556-68.58-36.105 68.819-76.519 13.575 54.293 55.604z" fill="#d599ed"/><path d="m399.037 181.706 69.886 33.995-11.243-76.898 53.928-55.96-76.608-13.071-36.556-68.58z" fill="#ad77e3"/><g><path d="m346.173 361.538c-108.358 0-196.199-87.841-196.199-196.199 0-69.45 36.085-130.471 90.528-165.338l-34.573 6.798c-120.345 23.663-206.78 129.982-205.524 252.801.697 68.111 27.877 131.875 76.532 179.545 48.017 47.044 111.275 72.855 178.392 72.855.892 0 1.788-.004 2.682-.014 60.436-.618 118.825-22.742 164.413-62.296 45.059-39.096 75.124-92.883 84.657-151.452l4.431-27.228c-34.868 54.443-95.889 90.528-165.339 90.528z" fill="#ffef55"/></g></g><g><path d="m346.173 361.538c-54.067 0-103.024-21.872-138.511-57.248l-132.786 132.786c.688.689 1.365 1.387 2.062 2.07 48.016 47.043 111.274 72.854 178.391 72.854.892 0 1.788-.004 2.681-.014 60.436-.618 118.825-22.742 164.413-62.296 45.059-39.096 75.124-92.883 84.657-151.452l4.431-27.228c-34.867 54.443-95.888 90.528-165.338 90.528z" fill="#fed843"/></g></g></svg>